<?xml version="1.0" encoding="utf-8"?>
<!-- Generator: Adobe Illustrator 25.2.0, SVG Export Plug-In . SVG Version: 6.00 Build 0)  -->
<svg version="1.1" id="Layer_1" xmlns="http://www.w3.org/2000/svg" xmlns:xlink="http://www.w3.org/1999/xlink" x="0px" y="0px"
	 viewBox="0 0 1071.5 744.8" style="enable-background:new 0 0 1071.5 744.8;" xml:space="preserve">
<style type="text/css">
	.st0{fill:#353535;}
</style>
<g>
	<path class="st0" d="M89.9,707c0,1.3-0.3,2.5-0.8,3.5c-0.5,1.1-1.2,2-2.1,2.7c-0.9,0.8-1.9,1.3-3.1,1.7c-1.2,0.4-2.4,0.6-3.8,0.6
		H64.2v-33.6h16.7c1.2,0,2.2,0.3,3.2,0.8c0.9,0.5,1.7,1.2,2.4,2c0.7,0.8,1.2,1.7,1.5,2.7c0.4,1,0.5,2.1,0.5,3.1
		c0,1.7-0.4,3.2-1.3,4.6c-0.8,1.4-2,2.5-3.6,3.2c1.9,0.6,3.4,1.6,4.6,3.1C89.4,703.1,89.9,704.9,89.9,707z M68.4,685.8V697h10.7
		c0.8,0,1.4-0.2,2.1-0.4c0.6-0.3,1.2-0.7,1.6-1.2c0.5-0.5,0.8-1.1,1.1-1.8c0.3-0.7,0.4-1.4,0.4-2.2c0-0.8-0.1-1.5-0.4-2.2
		c-0.3-0.7-0.6-1.3-1-1.8c-0.4-0.5-0.9-0.9-1.6-1.2c-0.6-0.3-1.3-0.4-2-0.4H68.4z M85.6,706.2c0-0.8-0.1-1.5-0.4-2.2
		c-0.3-0.7-0.6-1.3-1.1-1.9c-0.5-0.5-1-1-1.6-1.3c-0.6-0.3-1.3-0.5-2.1-0.5h-12v11.5h11.7c0.8,0,1.5-0.2,2.2-0.5
		c0.7-0.3,1.2-0.7,1.8-1.3c0.5-0.5,0.9-1.1,1.2-1.8C85.5,707.7,85.6,707,85.6,706.2z"/>
	<path class="st0" d="M102.5,715.6v-33.6h14.4c1.5,0,2.8,0.3,4.1,0.9c1.2,0.6,2.3,1.4,3.2,2.5c0.9,1,1.6,2.2,2.1,3.5
		c0.5,1.3,0.8,2.6,0.8,3.9c0,1.2-0.2,2.3-0.5,3.4c-0.3,1.1-0.8,2.1-1.4,3c-0.6,0.9-1.4,1.6-2.2,2.3c-0.9,0.6-1.8,1.1-2.9,1.4
		l8.1,12.9h-4.8l-7.7-12.1h-8.9v12.1H102.5z M106.7,699.8h10.2c0.9,0,1.7-0.2,2.4-0.6c0.7-0.4,1.3-0.9,1.8-1.5
		c0.5-0.6,0.9-1.4,1.2-2.2c0.3-0.8,0.4-1.7,0.4-2.6c0-0.9-0.2-1.8-0.5-2.7c-0.3-0.8-0.8-1.6-1.3-2.2c-0.6-0.6-1.2-1.2-1.9-1.5
		c-0.7-0.4-1.5-0.5-2.3-0.5h-9.9V699.8z"/>
	<path class="st0" d="M140.1,715.6v-33.6h4.3v33.6H140.1z"/>
	<path class="st0" d="M163.3,690v25.6H159v-33.6h3.3l20.8,26.1v-26.1h4.3v33.5h-3.6L163.3,690z"/>
	<path class="st0" d="M225.7,711.1c-3,3.2-6.4,4.8-10.2,4.8c-2.2,0-4.3-0.5-6.2-1.5c-1.9-1-3.6-2.3-4.9-3.8
		c-1.4-1.6-2.5-3.4-3.3-5.5c-0.8-2-1.2-4.2-1.2-6.3c0-2.3,0.4-4.4,1.2-6.4c0.8-2,1.9-3.8,3.3-5.4c1.4-1.6,3-2.8,5-3.7
		c1.9-0.9,4-1.4,6.2-1.4c3.2,0,5.9,0.7,8,2c2.1,1.4,3.7,3.1,4.8,5.3l-3.3,2.3c-1-2-2.3-3.4-4-4.3c-1.7-0.9-3.5-1.4-5.6-1.4
		c-1.7,0-3.2,0.4-4.6,1.1c-1.4,0.7-2.6,1.7-3.5,2.9c-1,1.2-1.7,2.6-2.3,4.2c-0.5,1.6-0.8,3.2-0.8,4.9c0,1.8,0.3,3.5,0.9,5.1
		c0.6,1.6,1.4,3,2.5,4.2c1,1.2,2.3,2.2,3.7,2.9c1.4,0.7,3,1,4.6,1c3.7,0,6.9-1.8,9.9-5.3v-4.6h-7.2v-3.2h10.8v16.7h-3.6V711.1z"/>
	<path class="st0" d="M260.5,682.1l10.2,17.5l10.3-17.5h4.6l-12.8,21.3v12.2h-4.3v-12.3l-12.7-21.2H260.5z"/>
	<path class="st0" d="M308.3,715.9c-2.4,0-4.5-0.5-6.4-1.4c-1.9-1-3.6-2.2-5-3.8c-1.4-1.6-2.5-3.4-3.2-5.5c-0.8-2-1.1-4.1-1.1-6.3
		c0-2.2,0.4-4.4,1.2-6.4c0.8-2,1.9-3.9,3.3-5.4c1.4-1.6,3.1-2.8,5-3.8c1.9-0.9,4-1.4,6.3-1.4c2.4,0,4.5,0.5,6.4,1.5
		c1.9,1,3.6,2.3,5,3.9c1.4,1.6,2.5,3.4,3.2,5.5c0.8,2,1.1,4.1,1.1,6.2c0,2.2-0.4,4.4-1.2,6.4c-0.8,2-1.9,3.9-3.3,5.4s-3.1,2.8-5,3.7
		C312.6,715.4,310.5,715.9,308.3,715.9z M296.8,698.8c0,1.7,0.3,3.3,0.8,4.9c0.6,1.6,1.3,3,2.3,4.2c1,1.2,2.2,2.2,3.6,2.9
		c1.4,0.7,3,1.1,4.7,1.1c1.8,0,3.4-0.4,4.8-1.2c1.4-0.8,2.6-1.8,3.6-3c1-1.2,1.8-2.7,2.3-4.2c0.5-1.6,0.8-3.2,0.8-4.8
		c0-1.7-0.3-3.3-0.8-4.9c-0.6-1.6-1.3-3-2.4-4.2c-1-1.2-2.2-2.2-3.6-2.9c-1.4-0.7-3-1.1-4.7-1.1c-1.8,0-3.4,0.4-4.8,1.1
		c-1.4,0.8-2.6,1.7-3.6,3c-1,1.2-1.8,2.6-2.3,4.2C297.1,695.6,296.8,697.2,296.8,698.8z"/>
	<path class="st0" d="M350.4,712c2,0,3.6-0.4,4.9-1.1s2.3-1.7,3.1-3c0.8-1.2,1.3-2.6,1.6-4.2c0.3-1.6,0.5-3.1,0.5-4.7v-17h4.3v17
		c0,2.3-0.3,4.4-0.8,6.5c-0.5,2-1.3,3.8-2.5,5.4c-1.1,1.5-2.6,2.8-4.4,3.7s-4,1.3-6.6,1.3c-2.7,0-4.9-0.5-6.8-1.4
		c-1.8-0.9-3.3-2.2-4.4-3.8c-1.1-1.6-1.9-3.4-2.4-5.4c-0.5-2-0.7-4.1-0.7-6.3v-17h4.3v17c0,1.7,0.2,3.3,0.5,4.8
		c0.3,1.6,0.9,2.9,1.7,4.1c0.8,1.2,1.8,2.2,3.1,2.9C346.9,711.7,348.5,712,350.4,712z"/>
	<path class="st0" d="M378.9,715.6v-33.6h14.4c1.5,0,2.8,0.3,4.1,0.9c1.2,0.6,2.3,1.4,3.2,2.5c0.9,1,1.6,2.2,2.1,3.5
		c0.5,1.3,0.8,2.6,0.8,3.9c0,1.2-0.2,2.3-0.5,3.4c-0.3,1.1-0.8,2.1-1.4,3c-0.6,0.9-1.4,1.6-2.2,2.3c-0.9,0.6-1.8,1.1-2.9,1.4
		l8.1,12.9h-4.8l-7.7-12.1h-8.9v12.1H378.9z M383.2,699.8h10.2c0.9,0,1.7-0.2,2.4-0.6c0.7-0.4,1.3-0.9,1.8-1.5
		c0.5-0.6,0.9-1.4,1.2-2.2c0.3-0.8,0.4-1.7,0.4-2.6c0-0.9-0.2-1.8-0.5-2.7c-0.3-0.8-0.8-1.6-1.3-2.2c-0.6-0.6-1.2-1.2-1.9-1.5
		c-0.7-0.4-1.5-0.5-2.3-0.5h-9.9V699.8z"/>
	<path class="st0" d="M454.8,689.1c-0.4-0.4-0.9-0.9-1.5-1.3c-0.6-0.4-1.3-0.8-2.1-1.1c-0.8-0.3-1.6-0.6-2.6-0.8
		c-0.9-0.2-1.9-0.3-2.9-0.3c-2.6,0-4.5,0.5-5.7,1.5c-1.2,1-1.8,2.3-1.8,4c0,0.9,0.2,1.7,0.5,2.3c0.3,0.6,0.9,1.1,1.6,1.5
		c0.7,0.4,1.7,0.8,2.8,1.1c1.1,0.3,2.4,0.6,3.9,1c1.7,0.4,3.3,0.8,4.7,1.3c1.4,0.5,2.6,1.1,3.6,1.8c1,0.7,1.7,1.6,2.3,2.6
		c0.5,1,0.8,2.3,0.8,3.8c0,1.6-0.3,3-0.9,4.2s-1.5,2.2-2.6,2.9c-1.1,0.8-2.4,1.3-3.9,1.7c-1.5,0.4-3.1,0.5-4.8,0.5
		c-2.6,0-5-0.4-7.3-1.2c-2.3-0.8-4.4-2-6.3-3.5l2-3.6c0.5,0.5,1.2,1.1,2,1.6c0.8,0.5,1.7,1,2.7,1.4c1,0.4,2.1,0.8,3.3,1
		c1.2,0.3,2.4,0.4,3.7,0.4c2.4,0,4.3-0.4,5.6-1.3c1.3-0.8,2-2.1,2-3.8c0-0.9-0.2-1.7-0.6-2.4c-0.4-0.6-1-1.2-1.9-1.7
		c-0.8-0.5-1.8-0.9-3-1.3c-1.2-0.4-2.6-0.7-4.1-1.1c-1.7-0.4-3.2-0.8-4.5-1.3c-1.3-0.5-2.4-1-3.2-1.7c-0.9-0.7-1.5-1.5-2-2.4
		c-0.4-0.9-0.7-2.1-0.7-3.4c0-1.6,0.3-3,0.9-4.3c0.6-1.2,1.4-2.3,2.5-3.1c1.1-0.9,2.3-1.5,3.8-1.9c1.5-0.4,3.1-0.6,4.8-0.6
		c2.3,0,4.3,0.3,6.1,1c1.8,0.7,3.4,1.6,4.9,2.8L454.8,689.1z"/>
	<path class="st0" d="M484.1,715.9c-2.4,0-4.5-0.5-6.4-1.4c-1.9-1-3.6-2.2-5-3.8c-1.4-1.6-2.5-3.4-3.2-5.5c-0.8-2-1.1-4.1-1.1-6.3
		c0-2.2,0.4-4.4,1.2-6.4c0.8-2,1.9-3.9,3.3-5.4c1.4-1.6,3.1-2.8,5-3.8c1.9-0.9,4-1.4,6.3-1.4c2.4,0,4.5,0.5,6.4,1.5
		c1.9,1,3.6,2.3,5,3.9c1.4,1.6,2.5,3.4,3.2,5.5c0.8,2,1.1,4.1,1.1,6.2c0,2.2-0.4,4.4-1.2,6.4c-0.8,2-1.9,3.9-3.3,5.4s-3.1,2.8-5,3.7
		C488.5,715.4,486.4,715.9,484.1,715.9z M472.7,698.8c0,1.7,0.3,3.3,0.8,4.9c0.6,1.6,1.3,3,2.3,4.2c1,1.2,2.2,2.2,3.6,2.9
		c1.4,0.7,3,1.1,4.7,1.1c1.8,0,3.4-0.4,4.8-1.2c1.4-0.8,2.6-1.8,3.6-3c1-1.2,1.8-2.7,2.3-4.2c0.5-1.6,0.8-3.2,0.8-4.8
		c0-1.7-0.3-3.3-0.8-4.9c-0.6-1.6-1.3-3-2.4-4.2c-1-1.2-2.2-2.2-3.6-2.9c-1.4-0.7-3-1.1-4.7-1.1c-1.8,0-3.4,0.4-4.8,1.1
		c-1.4,0.8-2.6,1.7-3.6,3c-1,1.2-1.8,2.6-2.3,4.2C472.9,695.6,472.7,697.2,472.7,698.8z"/>
	<path class="st0" d="M512.5,715.6v-33.6h4.3v29.8h18.7v3.8H512.5z"/>
	<path class="st0" d="M569.5,711.8v3.8h-22.8v-33.6h22.3v3.8H551v10.9h15.7v3.5H551v11.6H569.5z"/>
	<path class="st0" d="M623.3,685.8h-11.6v29.8h-4.3v-29.8h-11.6v-3.8h27.4V685.8z"/>
	<path class="st0" d="M647.3,715.9c-2.4,0-4.5-0.5-6.4-1.4c-1.9-1-3.6-2.2-5-3.8c-1.4-1.6-2.5-3.4-3.2-5.5c-0.8-2-1.1-4.1-1.1-6.3
		c0-2.2,0.4-4.4,1.2-6.4s1.9-3.9,3.3-5.4c1.4-1.6,3.1-2.8,5-3.8c1.9-0.9,4-1.4,6.3-1.4c2.4,0,4.5,0.5,6.4,1.5c1.9,1,3.6,2.3,5,3.9
		c1.4,1.6,2.5,3.4,3.2,5.5c0.8,2,1.1,4.1,1.1,6.2c0,2.2-0.4,4.4-1.2,6.4c-0.8,2-1.9,3.9-3.3,5.4s-3.1,2.8-5,3.7
		C651.7,715.4,649.6,715.9,647.3,715.9z M635.8,698.8c0,1.7,0.3,3.3,0.8,4.9c0.6,1.6,1.3,3,2.3,4.2c1,1.2,2.2,2.2,3.6,2.9
		c1.4,0.7,3,1.1,4.7,1.1c1.8,0,3.4-0.4,4.8-1.2c1.4-0.8,2.6-1.8,3.6-3c1-1.2,1.8-2.7,2.3-4.2c0.5-1.6,0.8-3.2,0.8-4.8
		c0-1.7-0.3-3.3-0.8-4.9c-0.6-1.6-1.3-3-2.4-4.2c-1-1.2-2.2-2.2-3.6-2.9c-1.4-0.7-3-1.1-4.7-1.1c-1.8,0-3.4,0.4-4.8,1.1
		c-1.4,0.8-2.6,1.7-3.6,3c-1,1.2-1.8,2.6-2.3,4.2C636.1,695.6,635.8,697.2,635.8,698.8z"/>
	<path class="st0" d="M717,685.8h-11.6v29.8h-4.3v-29.8h-11.6v-3.8H717V685.8z"/>
	<path class="st0" d="M755.4,682.1v33.6h-4.3v-15.3h-18.5v15.3h-4.3v-33.6h4.3v14.5h18.5v-14.5H755.4z"/>
	<path class="st0" d="M792.8,711.8v3.8h-22.8v-33.6h22.3v3.8h-18.1v10.9h15.7v3.5h-15.7v11.6H792.8z"/>
	<path class="st0" d="M847.5,711.1c-3,3.2-6.4,4.8-10.2,4.8c-2.2,0-4.3-0.5-6.2-1.5c-1.9-1-3.6-2.3-4.9-3.8
		c-1.4-1.6-2.5-3.4-3.3-5.5c-0.8-2-1.2-4.2-1.2-6.3c0-2.3,0.4-4.4,1.2-6.4c0.8-2,1.9-3.8,3.3-5.4c1.4-1.6,3-2.8,5-3.7
		c1.9-0.9,4-1.4,6.2-1.4c3.2,0,5.9,0.7,8,2c2.1,1.4,3.7,3.1,4.8,5.3l-3.3,2.3c-1-2-2.3-3.4-4-4.3c-1.7-0.9-3.5-1.4-5.6-1.4
		c-1.7,0-3.2,0.4-4.6,1.1c-1.4,0.7-2.6,1.7-3.5,2.9s-1.7,2.6-2.3,4.2c-0.5,1.6-0.8,3.2-0.8,4.9c0,1.8,0.3,3.5,0.9,5.1
		c0.6,1.6,1.4,3,2.5,4.2c1,1.2,2.3,2.2,3.7,2.9c1.4,0.7,3,1,4.6,1c3.7,0,6.9-1.8,9.9-5.3v-4.6h-7.2v-3.2h10.8v16.7h-3.6V711.1z"/>
	<path class="st0" d="M874.4,682.1h3.6l13.7,33.6h-4.5l-4-9.8h-14.1l-3.9,9.8h-4.5L874.4,682.1z M882.2,702.5l-6-15.5l-6.2,15.5
		H882.2z"/>
	<path class="st0" d="M931.8,715.6v-25.9l-11.2,19.9h-2.4l-11.2-19.9v25.9h-4.3v-33.6h4.5l12.1,21.8l12.2-21.8h4.4v33.6H931.8z"/>
	<path class="st0" d="M973.5,711.8v3.8h-22.8v-33.6h22.3v3.8H955v10.9h15.7v3.5H955v11.6H973.5z"/>
</g>
<g>
	<g>
		<path class="st0" d="M45.7,656.4v-173h35.2v71.1h30.5v-71.1h35.2v173h-35.2v-76.7H80.9v76.7H45.7z"/>
		<path class="st0" d="M196.1,656.4v-68.6l-33.8-104.5h33.1l18.6,60.9l17.3-60.9h32L230,587.9v68.6H196.1z"/>
		<path class="st0" d="M276.8,656.4v-173h54.9c10.4,0,18.9,2,25.4,5.9c6.5,3.9,11.4,9.6,14.6,17c3.2,7.4,4.8,16.4,4.8,26.9
			c0,12.4-2.1,22.1-6.3,29.1c-4.2,7-9.9,11.9-17.2,14.8s-15.6,4.4-25,4.4h-16v75H276.8z M312.1,556.7h12.4c5.1,0,9.1-0.8,11.9-2.5
			c2.8-1.6,4.7-4.2,5.7-7.8c1-3.6,1.5-8.1,1.5-13.7c0-5.3-0.4-9.7-1.2-13.2c-0.8-3.6-2.5-6.3-5.2-8.3c-2.7-2-7-3-12.8-3h-12.2V556.7
			z"/>
		<path class="st0" d="M393.4,656.4v-173h75.4v24.4h-40.2v45.9h31v24.6h-31v54.3h40.6v23.9H393.4z"/>
		<path class="st0" d="M531.9,658.8c-10.7,0-19.6-2-26.7-5.9c-7.1-3.9-12.5-9.8-16.1-17.7c-3.6-7.9-5.7-18-6.3-30.2l30.3-5.1
			c0.3,7.1,1,13.1,2.2,17.8c1.2,4.8,3.1,8.3,5.6,10.7c2.5,2.4,5.6,3.5,9.3,3.5c4.6,0,7.7-1.4,9.3-4.3c1.6-2.8,2.5-6.1,2.5-9.8
			c0-7.3-1.7-13.3-5.2-18.3c-3.5-4.9-8.1-9.9-13.8-14.8l-17.9-15.6c-6.4-5.4-11.6-11.5-15.7-18.4c-4.1-6.8-6.1-15.2-6.1-25.2
			c0-14.2,4.2-25.2,12.5-32.8c8.3-7.6,19.8-11.4,34.3-11.4c8.7,0,15.8,1.4,21.4,4.3c5.6,2.9,9.9,6.7,12.9,11.4
			c3.1,4.8,5.2,10,6.4,15.6c1.2,5.6,2,11.2,2.2,16.8l-30.1,4.5c-0.3-5.3-0.7-9.9-1.4-13.9c-0.6-4-1.9-7.1-3.8-9.4
			c-1.9-2.3-4.8-3.4-8.7-3.4c-4.1,0-7.2,1.5-9.2,4.6c-2,3.1-3,6.4-3,10.1c0,6.1,1.4,11.1,4.2,15.1c2.8,3.9,6.6,8,11.4,12.3
			l17.5,15.4c7.3,6.3,13.5,13.4,18.7,21.5c5.2,8,7.8,18,7.8,29.8c0,8.1-1.9,15.5-5.6,22c-3.7,6.6-8.9,11.7-15.5,15.4
			C548.6,656.9,540.8,658.8,531.9,658.8z"/>
		<path class="st0" d="M643.1,658.8c-12.7,0-22.7-2.3-30.1-6.8c-7.4-4.6-12.7-11.1-15.9-19.5c-3.2-8.5-4.8-18.6-4.8-30.4v-64.5
			c0-11.8,1.6-21.9,4.8-30.3c3.2-8.4,8.5-14.8,15.9-19.2c7.4-4.4,17.4-6.6,30.1-6.6c12.8,0,23,2.2,30.4,6.7
			c7.5,4.5,12.8,10.9,16,19.2c3.2,8.3,4.8,18.4,4.8,30.2V602c0,11.8-1.6,22-4.8,30.4c-3.2,8.5-8.5,15-16,19.5
			C666.1,656.5,656,658.8,643.1,658.8z M643.1,633.4c4.6,0,7.9-1,10-3.1c2.1-2.1,3.6-4.8,4.3-8.3c0.7-3.5,1.1-7.2,1.1-11.2v-81.8
			c0-4-0.4-7.7-1.1-11.1c-0.7-3.4-2.1-6.2-4.3-8.2c-2.1-2.1-5.5-3.1-10-3.1c-4.3,0-7.5,1-9.6,3.1c-2.1,2.1-3.6,4.8-4.3,8.2
			c-0.7,3.4-1.1,7.1-1.1,11.1v81.8c0,4,0.3,7.7,1,11.2c0.6,3.5,2,6.3,4.2,8.3C635.5,632.3,638.7,633.4,643.1,633.4z"/>
		<path class="st0" d="M717.9,656.4v-173h35.2v149.1h40.6v23.9H717.9z"/>
		<path class="st0" d="M809.1,656.4v-173h75.4v24.4h-40.2v45.9h31v24.6h-31v54.3H885v23.9H809.1z"/>
		<path class="st0" d="M947.5,658.8c-10.7,0-19.6-2-26.7-5.9c-7.1-3.9-12.5-9.8-16.1-17.7c-3.6-7.9-5.7-18-6.3-30.2l30.3-5.1
			c0.3,7.1,1,13.1,2.2,17.8c1.2,4.8,3.1,8.3,5.6,10.7c2.5,2.4,5.6,3.5,9.3,3.5c4.6,0,7.7-1.4,9.3-4.3c1.6-2.8,2.5-6.1,2.5-9.8
			c0-7.3-1.7-13.3-5.2-18.3c-3.5-4.9-8.1-9.9-13.8-14.8l-17.9-15.6c-6.4-5.4-11.6-11.5-15.7-18.4c-4.1-6.8-6.1-15.2-6.1-25.2
			c0-14.2,4.2-25.2,12.5-32.8c8.3-7.6,19.8-11.4,34.3-11.4c8.7,0,15.8,1.4,21.4,4.3c5.6,2.9,9.9,6.7,12.9,11.4
			c3.1,4.8,5.2,10,6.4,15.6c1.2,5.6,2,11.2,2.2,16.8l-30.1,4.5c-0.3-5.3-0.7-9.9-1.4-13.9c-0.6-4-1.9-7.1-3.8-9.4
			c-1.9-2.3-4.8-3.4-8.7-3.4c-4.1,0-7.2,1.5-9.2,4.6c-2,3.1-3,6.4-3,10.1c0,6.1,1.4,11.1,4.2,15.1c2.8,3.9,6.6,8,11.4,12.3
			l17.5,15.4c7.3,6.3,13.5,13.4,18.7,21.5c5.2,8,7.8,18,7.8,29.8c0,8.1-1.9,15.5-5.6,22c-3.7,6.6-8.9,11.7-15.5,15.4
			C964.3,656.9,956.5,658.8,947.5,658.8z"/>
	</g>
</g>
<g>
	<path class="st0" d="M486.6,393.5l29.4-52.3l-50.8-19.8c0,0-35.7-218,39.7-301.6l-95.7,66.5v268.2L486.6,393.5"/>
	<path class="st0" d="M551.1,393.5l-29.4-52.3l50.8-19.8c0,0,35.7-218-39.7-301.6l95.7,66.5v268.2L551.1,393.5"/>
	<polyline class="st0" points="610.4,228.7 518.5,246.8 416.5,228.7 416.5,266.8 518.5,295.2 610.4,270.7 	"/>
</g>
</svg>
